<mxfile host="app.diagrams.net" modified="2023-10-31T18:41:54.655Z" agent="Mozilla/5.0 (X11; Linux x86_64) AppleWebKit/537.36 (KHTML, like Gecko) Chrome/118.0.0.0 Safari/537.36" etag="GkwV3n2lT67MAQSNoioI" version="22.0.8" type="device">
  <diagram name="Page-1" id="-ulH3O3-4FexaumD8vs6">
    <mxGraphModel dx="977" dy="542" grid="1" gridSize="10" guides="1" tooltips="1" connect="1" arrows="1" fold="1" page="1" pageScale="1" pageWidth="827" pageHeight="1169" math="0" shadow="0">
      <root>
        <mxCell id="0" />
        <mxCell id="1" parent="0" />
        <mxCell id="7DDmQKchOeRSoel_VwaO-1" value="" style="rounded=0;whiteSpace=wrap;html=1;" vertex="1" parent="1">
          <mxGeometry x="320" y="440" width="160" height="40" as="geometry" />
        </mxCell>
        <mxCell id="7DDmQKchOeRSoel_VwaO-2" value="" style="rounded=0;whiteSpace=wrap;html=1;" vertex="1" parent="1">
          <mxGeometry x="320" y="400" width="160" height="40" as="geometry" />
        </mxCell>
        <mxCell id="7DDmQKchOeRSoel_VwaO-3" value="" style="rounded=0;whiteSpace=wrap;html=1;" vertex="1" parent="1">
          <mxGeometry x="320" y="360" width="160" height="40" as="geometry" />
        </mxCell>
        <mxCell id="7DDmQKchOeRSoel_VwaO-4" value="" style="rounded=0;whiteSpace=wrap;html=1;" vertex="1" parent="1">
          <mxGeometry x="320" y="320" width="160" height="40" as="geometry" />
        </mxCell>
        <mxCell id="7DDmQKchOeRSoel_VwaO-5" value="" style="rounded=0;whiteSpace=wrap;html=1;" vertex="1" parent="1">
          <mxGeometry x="320" y="280" width="160" height="40" as="geometry" />
        </mxCell>
        <mxCell id="7DDmQKchOeRSoel_VwaO-6" value="" style="rounded=0;whiteSpace=wrap;html=1;" vertex="1" parent="1">
          <mxGeometry x="320" y="240" width="160" height="40" as="geometry" />
        </mxCell>
        <mxCell id="7DDmQKchOeRSoel_VwaO-7" value="" style="rounded=0;whiteSpace=wrap;html=1;" vertex="1" parent="1">
          <mxGeometry x="320" y="200" width="160" height="40" as="geometry" />
        </mxCell>
        <mxCell id="7DDmQKchOeRSoel_VwaO-8" value="" style="rounded=0;whiteSpace=wrap;html=1;" vertex="1" parent="1">
          <mxGeometry x="320" y="160" width="160" height="40" as="geometry" />
        </mxCell>
        <mxCell id="7DDmQKchOeRSoel_VwaO-9" value="&lt;b&gt;&lt;font face=&quot;Courier New&quot;&gt;0x70000104&lt;/font&gt;&lt;/b&gt;" style="text;html=1;strokeColor=none;fillColor=none;align=center;verticalAlign=middle;whiteSpace=wrap;rounded=0;" vertex="1" parent="1">
          <mxGeometry x="200" y="445" width="90" height="30" as="geometry" />
        </mxCell>
        <mxCell id="7DDmQKchOeRSoel_VwaO-10" value="&lt;b&gt;&lt;font face=&quot;Courier New&quot;&gt;0x70000100&lt;/font&gt;&lt;/b&gt;" style="text;html=1;strokeColor=none;fillColor=none;align=center;verticalAlign=middle;whiteSpace=wrap;rounded=0;" vertex="1" parent="1">
          <mxGeometry x="200" y="405" width="90" height="30" as="geometry" />
        </mxCell>
        <mxCell id="7DDmQKchOeRSoel_VwaO-11" value="&lt;b&gt;&lt;font face=&quot;Courier New&quot;&gt;0x700000FC&lt;/font&gt;&lt;/b&gt;" style="text;html=1;strokeColor=none;fillColor=none;align=center;verticalAlign=middle;whiteSpace=wrap;rounded=0;" vertex="1" parent="1">
          <mxGeometry x="200" y="365" width="90" height="30" as="geometry" />
        </mxCell>
        <mxCell id="7DDmQKchOeRSoel_VwaO-12" value="&lt;b&gt;&lt;font face=&quot;Courier New&quot;&gt;0x700000F8&lt;/font&gt;&lt;/b&gt;" style="text;html=1;strokeColor=none;fillColor=none;align=center;verticalAlign=middle;whiteSpace=wrap;rounded=0;" vertex="1" parent="1">
          <mxGeometry x="200" y="325" width="90" height="30" as="geometry" />
        </mxCell>
        <mxCell id="7DDmQKchOeRSoel_VwaO-13" value="&lt;b&gt;&lt;font face=&quot;Courier New&quot;&gt;0x700000F4&lt;/font&gt;&lt;/b&gt;" style="text;html=1;strokeColor=none;fillColor=none;align=center;verticalAlign=middle;whiteSpace=wrap;rounded=0;" vertex="1" parent="1">
          <mxGeometry x="200" y="285" width="90" height="30" as="geometry" />
        </mxCell>
        <mxCell id="7DDmQKchOeRSoel_VwaO-14" value="&lt;b&gt;&lt;font face=&quot;Courier New&quot;&gt;0x700000F0&lt;/font&gt;&lt;/b&gt;" style="text;html=1;strokeColor=none;fillColor=none;align=center;verticalAlign=middle;whiteSpace=wrap;rounded=0;" vertex="1" parent="1">
          <mxGeometry x="200" y="245" width="90" height="30" as="geometry" />
        </mxCell>
        <mxCell id="7DDmQKchOeRSoel_VwaO-15" value="&lt;b&gt;&lt;font face=&quot;Courier New&quot;&gt;0x700000EC&lt;/font&gt;&lt;/b&gt;" style="text;html=1;strokeColor=none;fillColor=none;align=center;verticalAlign=middle;whiteSpace=wrap;rounded=0;" vertex="1" parent="1">
          <mxGeometry x="200" y="205" width="90" height="30" as="geometry" />
        </mxCell>
        <mxCell id="7DDmQKchOeRSoel_VwaO-16" value="&lt;b&gt;&lt;font face=&quot;Courier New&quot;&gt;0x700000E8&lt;/font&gt;&lt;/b&gt;" style="text;html=1;strokeColor=none;fillColor=none;align=center;verticalAlign=middle;whiteSpace=wrap;rounded=0;" vertex="1" parent="1">
          <mxGeometry x="200" y="165" width="90" height="30" as="geometry" />
        </mxCell>
      </root>
    </mxGraphModel>
  </diagram>
</mxfile>
